<?xml version="1.0" standalone="no"?>
<!DOCTYPE svg PUBLIC "-//W3C//DTD SVG 20010904//EN" "http://www.w3.org/TR/2001/REC-SVG-20010904/DTD/svg10.dtd">
<svg version="1.0" xmlns="http://www.w3.org/2000/svg"
    width="319.000000pt" height="117.000000pt" viewBox="0 0 319.000000 117.000000"
    preserveAspectRatio="xMidYMid meet">

    <g transform="translate(0.000000,117.000000) scale(0.100000,-0.100000)"
        fill="#0804fc" stroke="none">
        <path
            d="M1257 1123 l-67 -4 6 -37 c3 -20 38 -226 78 -457 l72 -420 107 -3
c80 -2 109 1 112 10 6 18 155 882 155 902 0 13 -12 16 -69 16 -39 0 -72 -3
-74 -7 -3 -5 -29 -167 -58 -362 -29 -194 -55 -348 -57 -342 -2 5 -27 167 -56
358 -41 274 -55 348 -66 349 -8 0 -45 -1 -83 -3z" />
        <path
            d="M1810 668 l0 -465 163 -7 c89 -4 186 -9 215 -12 l52 -6 0 71 0 71
-74 0 c-40 0 -101 3 -135 6 l-61 7 0 393 0 394 -27 0 c-16 0 -52 3 -80 6 l-53
7 0 -465z" />
        <path
            d="M50 599 l0 -522 60 6 c33 4 72 10 85 13 l25 6 0 208 0 207 69 6 c85
7 135 27 184 75 49 48 67 109 67 232 0 126 -18 187 -69 233 -54 49 -92 57
-268 57 l-153 0 0 -521z m284 371 c31 -11 46 -61 45 -150 0 -94 -16 -132 -59
-147 -19 -7 -50 -12 -67 -12 l-33 -1 0 160 0 160 44 0 c25 0 56 -4 70 -10z" />
        <path
            d="M755 1098 c-3 -13 -39 -216 -80 -453 -41 -237 -77 -445 -80 -464 l-6
-34 72 7 c40 3 74 8 76 10 3 2 11 43 18 91 8 48 17 90 20 93 6 7 185 17 185
11 0 -11 30 -172 32 -174 2 -1 38 0 81 3 49 3 77 8 77 16 0 6 -38 214 -84 461
l-83 450 -111 3 c-109 3 -112 2 -117 -20z m149 -383 c19 -120 34 -220 33 -221
-3 -2 -147 -10 -147 -8 0 1 16 104 35 230 19 125 35 230 36 233 2 17 12 -36
43 -234z" />
        <path
            d="M2320 650 c0 -368 3 -471 13 -475 6 -2 45 -6 85 -10 l72 -6 0 480 0
481 -85 0 -85 0 0 -470z" />
        <path
            d="M2580 1117 c0 -2 39 -107 86 -233 47 -126 86 -238 86 -249 0 -11 -42
-123 -92 -249 -50 -126 -89 -230 -88 -231 7 -6 149 -21 152 -16 2 3 29 77 61
164 32 87 62 154 66 150 4 -4 31 -82 60 -173 28 -91 55 -168 58 -172 8 -9 159
-33 166 -27 4 5 -31 110 -148 443 l-35 99 83 226 c45 124 86 236 90 249 7 23
6 23 -71 20 l-78 -3 -55 -157 c-30 -86 -58 -155 -61 -152 -3 3 -28 74 -56 157
l-51 152 -86 3 c-48 1 -87 1 -87 -1z" />
    </g>
</svg>
